<svg width="96" height="88" viewBox="0 0 96 88" fill="none" xmlns="http://www.w3.org/2000/svg">
<g filter="url(#filter0_d_0_449)">
<rect x="4" y="4" width="88" height="80" rx="5" fill="white"/>
</g>
<path d="M59.6278 53.282C59.6278 52.1872 59.6207 51.1356 59.6296 50.0841C59.6384 49.0404 60.0134 48.6217 60.9651 48.6198C64.2094 48.6119 67.4519 48.6139 70.6961 48.6198C71.5258 48.6198 71.9839 49.0601 71.9999 49.8187C72.0158 50.601 71.5382 51.0963 70.6855 51.1022C68.0374 51.116 65.3893 51.1081 62.7412 51.1081C62.4811 51.1081 62.2193 51.1081 61.9098 51.1081V71.8953C62.1362 71.8953 62.3715 71.8953 62.605 71.8953C64.128 71.8953 65.6493 71.8874 67.1724 71.8992C67.9879 71.9051 68.5221 72.4358 68.4973 73.1827C68.4743 73.908 67.9631 74.3816 67.1706 74.3856C65.0956 74.3915 63.0224 74.3934 60.9474 74.3856C60.0223 74.3816 59.642 73.9414 59.6296 72.8937C59.6225 72.3591 59.6296 71.8245 59.6296 71.1838H58.8689C56.0669 71.1838 53.2649 71.1956 50.4629 71.172C50.0118 71.168 49.5395 71.0678 49.1167 70.8948C41.0998 67.6046 33.0882 64.3006 25.0802 60.9887C24.7334 60.8452 24.3973 60.6428 24.0931 60.4089C19.0197 56.5408 13.9517 52.6648 8.88363 48.7908C7.76742 47.9378 7.73027 47.2852 8.6519 46.1885C9.88839 44.7202 11.2328 43.4289 13.1521 43.4643C14.2135 43.4839 15.2731 43.7925 16.3274 44.0068C16.621 44.0657 16.8934 44.2564 17.1747 44.3861C17.2048 44.3252 17.2472 44.276 17.2384 44.2524C16.6564 42.7822 16.8669 42.4088 18.2113 41.8034C20.7392 40.6674 23.0565 40.913 25.1067 42.9572C25.786 43.6353 26.3803 44.4549 26.8898 45.302C28.4235 47.8454 29.9059 50.428 31.3847 53.0107C31.7562 53.6593 32.2462 53.3822 32.7026 53.3979C32.3506 52.5193 31.9154 51.7115 31.7067 50.8369C31.4962 49.9544 31.4395 49.005 31.4484 48.0871C31.4572 47.0572 31.857 46.6995 32.7786 46.6956C35.471 46.6897 38.1633 46.6936 40.8539 46.6936C43.8541 46.6936 46.856 46.7093 49.8561 46.6818C50.4982 46.6759 50.9829 46.8921 51.457 47.3678C53.1269 49.0443 54.8923 50.6089 56.495 52.3582C57.4202 53.3684 58.4019 53.4962 59.6296 53.282H59.6278ZM59.5942 55.8528C58.9078 55.8528 58.271 55.8175 57.6377 55.8627C56.9956 55.9079 56.5056 55.6661 56.0315 55.1905C54.1617 53.3232 52.2743 51.4737 50.362 49.6576C50.0772 49.3863 49.6297 49.1898 49.2564 49.1878C44.314 49.1564 39.3715 49.1682 34.4291 49.1682H33.725C33.8825 51.7213 35.4975 53.4353 37.6433 53.4353C40.6222 53.4353 43.6011 53.4294 46.58 53.4451C46.9002 53.4451 47.2557 53.4903 47.5317 53.6495C48.0252 53.9365 48.1491 54.477 47.9916 55.045C47.7971 55.7447 47.2858 55.9059 46.6826 55.9059C41.519 55.9 36.3555 55.9079 31.1919 55.8902C30.8576 55.8902 30.4843 55.784 30.1942 55.5993C25.6639 52.712 21.1478 49.7912 16.614 46.9098C16.0284 46.5383 15.3775 46.2474 14.7247 46.0627C13.0849 45.5968 11.6874 46.0941 10.9498 47.3304C11.0329 47.4031 11.116 47.4837 11.2045 47.5525C15.9099 51.1494 20.6153 54.7482 25.3243 58.3372C25.556 58.5141 25.8249 58.6458 26.0902 58.7559C33.9338 61.999 41.7791 65.2401 49.6279 68.4674C49.9906 68.6168 50.3974 68.6915 50.7848 68.6954C53.4772 68.7151 56.1695 68.7072 58.8601 68.7033C59.0954 68.7033 59.3289 68.6797 59.5942 68.6679V55.8528ZM19.6495 43.9301C20.0475 44.7477 20.3765 45.5261 20.794 46.2396C21.0452 46.668 21.383 47.0887 21.7722 47.3501C23.3908 48.4409 25.043 49.4728 26.6846 50.5224C26.9181 50.6718 27.1604 50.8054 27.5638 51.0452C26.4865 49.1937 25.5843 47.4798 24.5247 45.8936C24.0188 45.1349 23.2634 44.5315 22.5276 44.0284C21.6643 43.4387 20.6879 43.4525 19.6495 43.9321V43.9301Z" fill="#004F95"/>
<path d="M53.0685 28.0999C53.0738 36.4081 46.9515 43.2147 39.4671 43.2166C31.9455 43.2166 25.7807 36.4573 25.7683 28.1923C25.7577 19.6483 31.8358 12.9007 39.5502 12.8889C46.9798 12.8791 53.0632 19.723 53.0685 28.0999ZM50.8396 28.1078C50.921 21.2482 45.8282 15.4794 39.6103 15.389C33.3164 15.2986 28.0998 20.861 28.0095 27.7619C27.9158 34.9124 32.9166 40.6398 39.3361 40.7342C45.6425 40.8266 50.7547 35.2151 50.8396 28.1098V28.1078Z" fill="#004F95"/>
<path d="M38.4534 19.5991C38.4534 19.0547 38.434 18.5417 38.4588 18.0326C38.4924 17.3329 38.9116 16.8769 39.5024 16.8494C40.0968 16.8219 40.5514 17.2287 40.6487 17.9186C40.6894 18.2056 40.6752 18.5043 40.6806 18.7992C40.6859 19.0645 40.6806 19.3318 40.6806 19.6109C40.9406 19.6895 41.1529 19.7426 41.3598 19.8153C43.1553 20.4423 44.1336 22.2624 43.8204 24.5797C43.7302 25.2539 43.2102 25.6254 42.6123 25.5585C42.0586 25.4956 41.6818 25.0436 41.6393 24.3714C41.6252 24.1512 41.6393 23.9291 41.6323 23.709C41.604 22.6889 41.1476 22.168 40.2436 22.1464C39.6705 22.1327 39.0956 22.1287 38.5224 22.1504C37.7406 22.1798 37.3019 22.6653 37.2453 23.5183C37.2417 23.5675 37.2399 23.6166 37.2399 23.6658C37.2594 26.4293 36.9693 25.7688 39.0337 26.6907C39.9747 27.1113 40.9317 27.4788 41.8728 27.8995C43.0138 28.4105 43.6949 29.3638 43.8169 30.7219C43.893 31.571 43.916 32.4457 43.824 33.2889C43.6046 35.2937 42.4796 36.3944 40.6788 36.7993C40.6788 37.3417 40.6982 37.8763 40.6735 38.409C40.6363 39.2384 40.1799 39.7514 39.5325 39.7377C38.8868 39.7239 38.4676 39.1972 38.4499 38.3599C38.4393 37.8508 38.4481 37.3417 38.4481 36.8582C37.9741 36.7187 37.5584 36.642 37.1763 36.473C35.5488 35.7536 34.5812 33.5974 35.05 31.7518C35.1897 31.2054 35.5435 30.8772 36.0636 30.8536C36.612 30.83 37.0171 31.1229 37.1568 31.7125C37.2506 32.1076 37.2258 32.5361 37.2541 32.9488C37.3089 33.7291 37.7282 34.2225 38.4322 34.2598C39.0708 34.2952 39.7129 34.2913 40.3515 34.2657C41.1175 34.2362 41.565 33.7311 41.6287 32.8859C41.6323 32.8368 41.6287 32.7877 41.6323 32.7385C41.683 31.2316 41.0739 30.2129 39.8049 29.6822C38.878 29.293 37.9511 28.9038 37.0277 28.5029C35.6903 27.923 35.0217 26.8322 35.0075 25.2244C35.004 24.8313 35.0075 24.4402 35.0075 24.0471C35.0093 21.4133 36.0441 20.0453 38.4552 19.5991H38.4534Z" fill="#004F95"/>
<defs>
<filter id="filter0_d_0_449" x="0" y="0" width="96" height="88" filterUnits="userSpaceOnUse" color-interpolation-filters="sRGB">
<feFlood flood-opacity="0" result="BackgroundImageFix"/>
<feColorMatrix in="SourceAlpha" type="matrix" values="0 0 0 0 0 0 0 0 0 0 0 0 0 0 0 0 0 0 127 0" result="hardAlpha"/>
<feOffset/>
<feGaussianBlur stdDeviation="2"/>
<feComposite in2="hardAlpha" operator="out"/>
<feColorMatrix type="matrix" values="0 0 0 0 0.290196 0 0 0 0 0.290196 0 0 0 0 0.290196 0 0 0 0.25 0"/>
<feBlend mode="normal" in2="BackgroundImageFix" result="effect1_dropShadow_0_449"/>
<feBlend mode="normal" in="SourceGraphic" in2="effect1_dropShadow_0_449" result="shape"/>
</filter>
</defs>
</svg>
