<svg width="96" height="96" viewBox="0 0 96 96" fill="none" xmlns="http://www.w3.org/2000/svg">
<g filter="url(#filter0_d_0_431)">
<rect x="4" y="4" width="88" height="88" rx="5" fill="white"/>
</g>
<path d="M35.6314 87.1111C35.2418 86.6314 34.7498 86.2021 34.4764 85.6628C32.6629 82.0786 30.8723 78.4822 29.12 74.869C27.4532 71.4331 29.2789 67.5892 32.9409 66.7321C35.1898 66.205 37.5258 67.1415 38.8504 69.1383C39.5058 70.1268 40.1077 71.1519 40.9037 72.1175V71.3811C40.9037 64.5061 40.8976 57.6326 40.9159 50.7576C40.9175 50.1969 40.7708 49.9112 40.233 49.679C33.9019 46.9489 30.029 40.219 30.9365 33.5824C31.9234 26.3667 37.2814 20.9156 44.3626 19.924C52.9732 18.7171 61.0215 25.0222 61.9382 33.6924C62.6639 40.5506 58.8918 47.0161 52.5469 49.7294C51.9923 49.9662 51.8075 50.2351 51.8182 50.8371C51.8579 53.2785 51.835 55.7214 51.835 58.4149C53.5797 57.7442 55.2526 57.2308 56.8125 56.4807C65.2137 52.4443 70.3623 43.6596 69.9055 34.3401C69.6977 30.099 68.4557 26.2078 66.1808 22.6297C65.8783 22.1531 65.643 21.9942 65.0441 22.2096C62.4393 23.1431 59.5732 22.0583 58.1752 19.6842C56.759 17.2779 57.2463 14.2483 59.347 12.3906C61.4019 10.5756 64.4834 10.4564 66.6743 12.1094C68.8636 13.761 69.6198 16.7585 68.4037 19.2258C68.1318 19.7774 68.1532 20.1318 68.4954 20.6375C77.4512 33.8635 72.5043 52.2503 58.1279 59.2246C57.8804 59.3453 57.6375 59.4751 57.3334 59.631C57.6451 59.8999 57.9064 60.1229 58.1646 60.346C61.2873 57.4737 65.8233 58.5432 67.3939 62.5062C68.5611 61.9181 69.8016 61.7042 71.085 61.9624C73.6119 62.4711 75.4559 64.6115 75.4743 67.2179C75.517 73.2771 75.4865 79.3378 75.4972 85.3969C75.4972 86.2067 75.0648 86.7078 74.4384 87.1096H73.5218C72.6677 86.6833 72.4157 85.9912 72.4202 85.0517C72.4523 79.2996 72.4416 73.546 72.4264 67.7939C72.4264 67.3203 72.3759 66.8146 72.2079 66.3776C71.803 65.3189 70.6694 64.7551 69.5327 64.9599C68.4419 65.1554 67.6154 66.1515 67.5955 67.3814C67.568 69.0864 67.6001 70.7929 67.5772 72.4979C67.565 73.3962 66.9477 74.0181 66.1182 74.0456C65.2886 74.0715 64.6423 73.4833 64.5445 72.5972C64.5186 72.3711 64.5308 72.1389 64.5308 71.9112C64.5308 69.366 64.5369 66.8207 64.5262 64.2754C64.5216 63.1662 63.9457 62.3122 63 61.9394C61.4447 61.3268 59.7687 62.4497 59.7443 64.1776C59.7091 66.6969 59.7336 69.2178 59.732 71.7371C59.732 71.9907 59.7427 72.2489 59.7137 72.4994C59.6098 73.3779 58.9437 73.986 58.1386 73.9554C57.3136 73.9233 56.6933 73.3015 56.6857 72.3971C56.6643 69.8014 56.6857 67.2042 56.6643 64.6085C56.6612 64.1593 56.6077 63.6826 56.4504 63.2671C56.0547 62.2251 54.9165 61.6125 53.87 61.8035C52.6829 62.0204 51.8487 62.9753 51.838 64.2219C51.8166 66.7168 51.838 69.2117 51.8273 71.705C51.8227 72.724 51.2391 73.3611 50.3408 73.3779C49.4134 73.3947 48.8039 72.7408 48.7748 71.6943C48.7687 71.4911 48.7748 71.2864 48.7748 71.0832C48.7748 61.8936 48.7748 52.7056 48.7748 43.516C48.7748 43.2364 48.784 42.9553 48.7657 42.6757C48.6984 41.6292 47.933 40.7293 46.9262 40.5017C45.8797 40.2649 44.7843 40.6697 44.3321 41.6276C44.0739 42.1746 43.9761 42.8453 43.9745 43.4594C43.9547 54.6856 43.9608 65.9101 43.9577 77.1362C43.9577 77.4922 43.9577 77.8512 43.9027 78.2011C43.8065 78.8137 43.4276 79.3042 42.8333 79.3347C42.3322 79.3607 41.7914 79.133 41.3147 78.9161C41.0993 78.8183 40.9862 78.4792 40.8411 78.2408C39.3561 75.8101 37.8833 73.3718 36.3861 70.9487C35.7536 69.9251 34.6765 69.4821 33.5689 69.7189C32.5223 69.9419 31.6561 70.8296 31.5873 71.9647C31.5537 72.5392 31.7172 73.1839 31.9723 73.7094C33.7109 77.3012 35.4984 80.8686 37.2676 84.4451C37.9093 85.7422 37.7382 86.364 36.545 87.1096H35.6283L35.6314 87.1111ZM51.8365 46.625C56.0287 44.9169 60.1079 39.2978 58.7115 32.7742C57.3991 26.6371 51.6012 22.26 45.0394 22.9154C39.1193 23.5082 34.1479 28.7301 33.9264 34.8015C33.7415 39.8539 37.3348 45.9024 40.9052 46.4707C40.9052 45.855 40.8701 45.2439 40.9129 44.6389C40.9969 43.4274 41.0504 42.2067 41.2658 41.0165C41.3559 40.52 41.3743 40.219 41.0412 39.8096C39.1116 37.4476 38.9222 34.2378 40.5141 31.691C42.0923 29.1656 45.0654 27.9219 47.9743 28.5743C53.1275 29.7278 55.1655 35.9031 51.7479 39.9669C51.5691 40.1793 51.4377 40.5307 51.4622 40.8011C51.5432 41.704 51.7632 42.5962 51.8227 43.5007C51.8884 44.5136 51.838 45.5342 51.838 46.625H51.8365ZM43.6277 38.0893C45.374 37.191 47.1019 37.1314 48.868 37.9472C49.0437 38.0282 49.4501 37.8983 49.5845 37.7318C50.8618 36.1551 50.573 33.7351 48.9811 32.3831C47.4075 31.0462 45.0134 31.1761 43.588 32.6749C42.1382 34.1996 42.1351 36.5478 43.6262 38.0893H43.6277ZM65.9119 16.7814C65.9272 15.2337 64.7309 14.0085 63.197 13.9978C61.6861 13.9871 60.4211 15.2399 60.4226 16.7462C60.4226 18.2343 61.628 19.4519 63.1237 19.4779C64.6775 19.5039 65.8982 18.3244 65.9119 16.7814Z" fill="#004F95"/>
<path d="M45.4107 8.88889C45.9973 9.23569 46.4984 9.6375 46.4923 10.4136C46.4847 11.3058 45.8919 11.8726 44.853 11.9536C38.8733 12.4257 33.7659 14.7815 29.5676 19.0669C21.9608 26.8296 20.7752 39.1053 26.7382 48.1833C26.8619 48.3728 26.9948 48.5561 27.1537 48.7868C28.4661 48.2582 29.8014 48.0718 31.1779 48.4339C34.4183 49.2849 36.2608 52.6628 35.2173 55.8436C34.1708 59.0321 30.6966 60.6714 27.58 59.4461C24.4786 58.2285 23.0134 54.6153 24.4694 51.6132C24.775 50.9822 24.6894 50.6003 24.3304 50.0594C14.1325 34.6258 22.3152 13.7992 40.5141 9.52444C41.6737 9.2525 42.8608 9.09819 44.0341 8.88889C44.4925 8.88889 44.9508 8.88889 45.4091 8.88889H45.4107ZM32.4429 54.0546C32.4475 52.51 31.242 51.3031 29.7005 51.3076C28.1743 51.3122 26.9322 52.5589 26.9505 54.0683C26.9689 55.5518 28.1895 56.7679 29.6761 56.7878C31.2069 56.8076 32.4368 55.5915 32.4414 54.0546H32.4429Z" fill="#004F95"/>
<path d="M51.8946 9.45569C52.7394 9.47402 53.378 10.1356 53.3689 10.9804C53.3597 11.8146 52.6875 12.4807 51.8579 12.4807C51.0084 12.4807 50.2934 11.7428 50.3301 10.9056C50.3652 10.0775 51.0558 9.43889 51.8961 9.45569H51.8946Z" fill="#004F95"/>
<defs>
<filter id="filter0_d_0_431" x="0" y="0" width="96" height="96" filterUnits="userSpaceOnUse" color-interpolation-filters="sRGB">
<feFlood flood-opacity="0" result="BackgroundImageFix"/>
<feColorMatrix in="SourceAlpha" type="matrix" values="0 0 0 0 0 0 0 0 0 0 0 0 0 0 0 0 0 0 127 0" result="hardAlpha"/>
<feOffset/>
<feGaussianBlur stdDeviation="2"/>
<feComposite in2="hardAlpha" operator="out"/>
<feColorMatrix type="matrix" values="0 0 0 0 0.290196 0 0 0 0 0.290196 0 0 0 0 0.290196 0 0 0 0.25 0"/>
<feBlend mode="normal" in2="BackgroundImageFix" result="effect1_dropShadow_0_431"/>
<feBlend mode="normal" in="SourceGraphic" in2="effect1_dropShadow_0_431" result="shape"/>
</filter>
</defs>
</svg>
