<svg width="96" height="96" viewBox="0 0 96 96" fill="none" xmlns="http://www.w3.org/2000/svg">
<g filter="url(#filter0_d_0_438)">
<rect x="4" y="4" width="88" height="88" rx="5" fill="white"/>
</g>
<path d="M21.6498 49.703C18.3457 49.703 15.1592 49.703 11.9756 49.703C11.5729 49.703 11.1672 49.7177 10.7645 49.6971C9.58574 49.6384 8.8773 48.9769 8.88906 47.9745C8.90082 46.9751 9.6122 46.3107 10.8086 46.3019C13.8511 46.2784 16.8965 46.2931 19.9419 46.2931C20.4828 46.2931 21.0266 46.2931 21.4852 46.2931C23.6957 31.898 31.9148 23.7524 46.304 21.6741C46.304 18.4112 46.304 15.0777 46.304 11.7472C46.304 11.4179 46.2952 11.0858 46.307 10.7565C46.3481 9.61597 47.0507 8.85756 48.0325 8.8899C48.9791 8.91929 49.6434 9.63067 49.6493 10.7389C49.6699 14.187 49.6581 17.6322 49.661 21.0803C49.661 21.2979 49.6934 21.5154 49.7081 21.7006C63.8504 23.917 71.9577 32.0655 74.1213 46.2931C76.6846 46.2931 79.3185 46.2931 81.9553 46.2931C83.0194 46.2931 84.0835 46.2725 85.1447 46.299C86.3617 46.3313 87.0466 46.9428 87.0672 47.9599C87.0878 49.021 86.3823 49.6883 85.1094 49.6942C81.6995 49.7148 78.2867 49.7001 74.8768 49.706C74.5916 49.706 74.3065 49.7501 74.086 49.7677C73.695 51.6637 73.4275 53.5157 72.9278 55.3C70.1029 65.3798 61.1695 72.8875 50.7399 73.9839C49.9344 74.0692 49.6199 74.2955 49.6346 75.1745C49.6904 78.4374 49.661 81.7003 49.6552 84.9662C49.6522 86.3302 49.032 87.1062 47.9914 87.1092C46.9478 87.1121 46.307 86.3184 46.304 84.978C46.2982 81.7885 46.304 78.5962 46.304 75.4067C46.304 75.0099 46.304 74.613 46.304 74.1633C39.6782 73.6488 34.0048 71.1825 29.3456 66.5527C24.7187 61.9523 22.2142 56.3347 21.6498 49.703ZM47.8238 70.8092C60.4199 70.7916 70.6055 60.5765 70.5938 47.9745C70.582 35.3696 60.3787 25.1752 47.7826 25.184C35.2189 25.1928 24.9744 35.4519 24.9833 48.0157C24.9921 60.5736 35.2659 70.8268 47.8238 70.8092Z" fill="#004F95"/>
<path d="M60.267 48.1245C60.17 55.009 54.5231 60.5677 47.7062 60.4854C40.8041 60.4031 35.2159 54.6856 35.3247 47.8188C35.4335 40.9695 41.1921 35.3579 47.9561 35.5166C54.8847 35.6783 60.364 41.287 60.267 48.1245ZM47.7591 38.9295C42.7266 38.95 38.6788 43.0272 38.717 48.0422C38.7552 53.0835 42.8089 57.0902 47.8473 57.0667C52.8887 57.0432 56.8983 52.9983 56.8806 47.954C56.8659 42.9244 52.8064 38.9089 47.7562 38.9295H47.7591Z" fill="#004F95"/>
<defs>
<filter id="filter0_d_0_438" x="0" y="0" width="96" height="96" filterUnits="userSpaceOnUse" color-interpolation-filters="sRGB">
<feFlood flood-opacity="0" result="BackgroundImageFix"/>
<feColorMatrix in="SourceAlpha" type="matrix" values="0 0 0 0 0 0 0 0 0 0 0 0 0 0 0 0 0 0 127 0" result="hardAlpha"/>
<feOffset/>
<feGaussianBlur stdDeviation="2"/>
<feComposite in2="hardAlpha" operator="out"/>
<feColorMatrix type="matrix" values="0 0 0 0 0.290196 0 0 0 0 0.290196 0 0 0 0 0.290196 0 0 0 0.25 0"/>
<feBlend mode="normal" in2="BackgroundImageFix" result="effect1_dropShadow_0_438"/>
<feBlend mode="normal" in="SourceGraphic" in2="effect1_dropShadow_0_438" result="shape"/>
</filter>
</defs>
</svg>
